# xmcd
#
# Track frame offsets: 
#        150
#        12030
#        23151
#        34391
#        48736
#        57971
#        69981
#        77284
#        87249
#        99477
#        107931
#        120066
#        133866
#        148902
#        161533
#
# Disc length: 2341 seconds
#
# Revision: 0
# Processed by: cddbd v1.4PL0 Copyright (c) Steve Scherf et al.
# Submitted via: ExactAudioCopy v0.95a3
#
DISCID=c009230f
DTITLE=Badomi DeCesare - Almost Texas
DYEAR=2003
DGENRE=Oldies
TTITLE0=Baby Keeps Stealin'
TTITLE1=Ricochet Romance
TTITLE2=Here I am in Dallas
TTITLE3=Crazy Blue Eyes
TTITLE4=Heartaches
TTITLE5=Daddy Come and Get Me
TTITLE6=Whose Shoulder
TTITLE7=You're Tired of Me
TTITLE8=Don't Be Angry
TTITLE9=Back in Baby's Arms
TTITLE10=Walkin' After Midnight
TTITLE11=I Cried Over You
TTITLE12=Crazy
TTITLE13=It Ain't Right
TTITLE14=Love Me Tender
EXTD=
EXTT0=
EXTT1=
EXTT2=
EXTT3=
EXTT4=
EXTT5=
EXTT6=
EXTT7=
EXTT8=
EXTT9=
EXTT10=
EXTT11=
EXTT12=
EXTT13=
EXTT14=
PLAYORDER=
